<?xml version="1.0" standalone="no"?>
<!DOCTYPE svg PUBLIC "-//W3C//DTD SVG 20010904//EN"
 "http://www.w3.org/TR/2001/REC-SVG-20010904/DTD/svg10.dtd">
<svg version="1.0" xmlns="http://www.w3.org/2000/svg"
 width="338.000000pt" height="338.000000pt" viewBox="0 0 338.000000 338.000000"
 preserveAspectRatio="xMidYMid meet">
<metadata>
Created by potrace 1.11, written by Peter Selinger 2001-2013
</metadata>
<g transform="translate(0.000000,338.000000) scale(0.100000,-0.100000)"
fill="#000000" stroke="none">
<path d="M1620 2387 c-3 -3 -23 -7 -45 -10 -147 -18 -366 -178 -443 -324 -29
-55 -63 -165 -78 -248 -2 -16 -9 -44 -13 -62 -5 -18 -9 -71 -9 -119 0 -267
156 -474 440 -584 43 -17 94 -33 115 -36 21 -3 41 -8 44 -10 4 -2 47 -7 96
-10 170 -12 275 28 393 146 107 107 196 277 235 450 33 145 3 350 -72 492 -57
109 -129 180 -236 233 -51 25 -119 52 -152 60 -59 16 -265 32 -275 22z m180
-149 c158 -41 320 -147 398 -261 58 -84 86 -173 89 -277 6 -245 -126 -477
-315 -552 -81 -31 -245 -32 -355 0 -144 41 -266 112 -353 203 -100 107 -143
222 -138 369 3 95 3 95 28 168 49 144 239 304 414 347 63 15 177 17 232 3z"/>
<path d="M1498 2090 c-20 -4 -44 -13 -53 -20 -18 -15 -49 -70 -39 -70 3 0 -1
-12 -11 -26 -11 -17 -16 -42 -15 -72 7 -151 1 -375 -14 -502 -4 -30 17 -75 39
-84 68 -26 87 9 101 184 3 47 8 87 10 89 2 2 25 -8 52 -23 26 -15 132 -70 236
-122 215 -109 221 -109 245 -30 10 34 11 54 3 70 -12 27 -97 86 -124 86 -17 0
-178 76 -178 84 0 2 35 20 78 41 112 53 155 102 169 190 13 88 -68 141 -284
184 -120 24 -167 29 -215 21z m212 -186 c14 -3 50 -12 80 -20 51 -15 53 -17
35 -30 -39 -28 -128 -57 -220 -70 -22 -3 -49 -7 -61 -9 -19 -4 -20 0 -21 63
-1 37 1 71 4 76 5 7 114 1 183 -10z"/>
</g>
</svg>
