<?xml version="1.0" standalone="no"?>
<!DOCTYPE svg PUBLIC "-//W3C//DTD SVG 20010904//EN"
 "http://www.w3.org/TR/2001/REC-SVG-20010904/DTD/svg10.dtd">
<svg version="1.0" xmlns="http://www.w3.org/2000/svg"
 width="974.000000pt" height="974.000000pt" viewBox="0 0 974.000000 974.000000"
 preserveAspectRatio="xMidYMid meet">
<metadata>
Created by potrace 1.11, written by Peter Selinger 2001-2013
</metadata>
<g transform="translate(0.000000,974.000000) scale(0.100000,-0.100000)"
fill="#000000" stroke="none">
<path d="M5279 5784 c-12 -15 -11 -19 9 -32 22 -14 22 -16 5 -35 -18 -19 -17
-20 5 -8 12 6 22 15 23 19 0 4 2 16 4 27 4 19 -11 45 -25 45 -4 0 -14 -7 -21
-16z"/>
<path d="M3991 5776 c-8 -10 -9 -16 -2 -21 14 -8 53 13 46 26 -9 13 -31 11
-44 -5z"/>
<path d="M3919 5756 c-7 -14 -9 -36 -5 -50 6 -24 11 -26 61 -26 65 0 80 -16
40 -44 -59 -44 -67 -53 -64 -69 4 -15 9 -14 42 9 39 29 62 79 55 124 -3 22 -9
26 -57 30 -59 5 -77 24 -39 39 l23 10 -23 0 c-14 1 -26 -8 -33 -23z"/>
<path d="M5794 5735 c-3 -14 -3 -33 2 -42 4 -10 9 -42 10 -72 2 -30 8 -57 14
-61 9 -6 73 -6 101 -1 6 1 39 67 39 78 0 3 -8 -1 -17 -10 -20 -17 -93 -34 -93
-21 1 5 7 20 15 34 8 14 14 30 14 35 0 6 -9 -7 -20 -28 -20 -38 -40 -45 -45
-15 -1 9 4 28 12 43 18 36 18 41 -6 65 -20 20 -20 20 -26 -5z"/>
<path d="M3656 5732 c-13 -40 10 -57 70 -54 l54 4 0 -67 c0 -39 4 -64 10 -60
5 3 8 43 6 88 l-3 82 -59 3 c-32 2 -62 8 -65 14 -4 6 -9 2 -13 -10z"/>
<path d="M3832 5738 c-18 -18 -15 -36 8 -50 11 -7 20 -19 20 -28 0 -12 3 -12
16 2 19 19 12 68 -10 68 -8 0 -16 5 -18 10 -2 7 -8 6 -16 -2z"/>
<path d="M4076 5734 c-11 -29 -6 -42 23 -53 15 -7 38 -25 50 -42 l22 -29 -28
0 c-35 0 -50 -10 -55 -35 -3 -17 3 -20 47 -21 96 -1 108 24 39 82 -29 25 -44
44 -41 55 5 20 -1 30 -30 46 -17 10 -22 9 -27 -3z"/>
<path d="M4165 5727 c-3 -12 1 -35 9 -51 l14 -28 18 27 c17 26 17 27 -9 51
l-27 24 -5 -23z"/>
<path d="M4246 5731 c-9 -27 6 -45 45 -55 26 -6 28 -1 20 47 0 4 -12 7 -25 7
-13 0 -26 6 -29 13 -2 6 -7 1 -11 -12z"/>
<path d="M4347 5723 c-4 -24 18 -58 32 -48 5 2 7 -24 6 -59 -2 -48 0 -63 10
-60 8 4 11 29 10 85 -2 75 -3 81 -27 94 -24 12 -26 11 -31 -12z"/>
<path d="M4517 5731 c-8 -34 13 -49 76 -53 47 -2 58 0 63 14 9 29 -5 38 -60
38 -28 0 -57 5 -63 11 -7 7 -12 4 -16 -10z"/>
<path d="M4696 5743 c-11 -11 -6 -47 9 -67 14 -18 15 -18 26 8 11 23 10 29 -8
46 -12 10 -24 16 -27 13z"/>
<path d="M4764 5723 c-4 -15 -2 -28 5 -33 9 -5 6 -17 -9 -43 -23 -39 -35 -46
-43 -24 -9 25 -15 1 -8 -33 6 -33 9 -35 51 -35 62 -1 80 4 80 25 0 10 11 38
25 61 14 24 25 51 25 59 0 14 -33 50 -45 50 -12 0 -4 -55 10 -70 14 -15 13
-20 -5 -42 -18 -23 -84 -47 -97 -35 -7 8 23 60 46 79 28 23 26 40 -4 55 -23
10 -26 9 -31 -14z"/>
<path d="M4917 5744 c-17 -17 -6 -55 18 -66 16 -7 25 -19 25 -34 0 -12 2 -28
5 -36 3 -8 -6 -18 -25 -25 -23 -9 -30 -18 -30 -37 l0 -26 50 25 c57 29 74 50
92 118 12 47 12 49 -12 67 -18 14 -27 15 -32 7 -13 -20 -9 -36 12 -54 27 -23
25 -37 -7 -63 l-27 -21 -9 23 c-4 12 -7 36 -7 53 3 49 1 55 -19 55 -11 0 -21
5 -23 11 -2 5 -7 7 -11 3z"/>
<path d="M5096 5735 c-9 -23 11 -55 34 -55 11 0 21 -4 21 -10 5 -48 3 -54 -29
-62 -25 -7 -32 -14 -32 -32 0 -22 4 -24 35 -22 20 2 38 6 42 10 3 3 5 27 3 53
-1 27 -3 62 -4 78 -1 24 -6 31 -26 34 -14 1 -28 7 -31 13 -3 5 -9 2 -13 -7z"/>
<path d="M5866 5743 c-13 -13 -5 -49 14 -60 16 -11 21 -10 30 6 5 11 10 22 10
24 0 9 -48 36 -54 30z"/>
<path d="M5937 5728 c-4 -13 0 -29 8 -38 8 -9 15 -22 15 -29 0 -21 17 -3 24
25 5 20 2 31 -13 45 -25 24 -27 24 -34 -3z"/>
<path d="M6016 5734 c-13 -40 2 -53 62 -56 56 -3 57 -4 57 -33 0 -29 -2 -30
-52 -33 -52 -3 -80 -20 -70 -45 4 -11 69 -15 135 -8 13 1 17 51 4 51 -4 0 -6
20 -4 45 5 60 -9 75 -68 75 -30 0 -50 5 -53 13 -2 7 -7 3 -11 -9z"/>
<path d="M5357 5726 c-3 -6 0 -19 5 -28 7 -14 21 -18 63 -18 l55 0 0 -66 c0
-46 3 -63 11 -58 8 4 10 26 6 62 -3 30 -2 63 3 73 7 11 6 20 -3 27 -18 14
-136 21 -140 8z"/>
<path d="M5610 5715 c0 -12 5 -26 11 -32 8 -8 8 -13 0 -17 -6 -4 -11 -31 -11
-60 l0 -52 68 2 c37 1 70 2 75 3 9 1 9 142 -1 157 -4 6 -37 13 -74 16 -64 4
-68 3 -68 -17z m135 -70 l0 -30 -60 0 c-53 0 -60 2 -61 20 -1 36 16 46 70 43
49 -3 51 -4 51 -33z"/>
<path d="M3661 5605 c0 -46 2 -56 10 -42 7 11 7 32 1 60 l-10 42 -1 -60z"/>
<path d="M4311 5638 c-1 -21 -6 -28 -20 -28 -34 0 -51 -12 -51 -35 0 -19 5
-22 36 -20 50 4 57 14 46 66 -8 34 -10 37 -11 17z"/>
<path d="M4640 5606 c0 -37 4 -55 10 -51 6 4 8 26 5 53 -8 66 -15 65 -15 -2z"/>
<path d="M4528 5634 c-5 -4 -8 -25 -8 -48 0 -28 3 -37 11 -29 6 6 9 27 7 48
-2 20 -6 33 -10 29z"/>
<path d="M5366 5624 c-9 -25 -7 -76 3 -69 8 4 12 85 5 85 -1 0 -5 -7 -8 -16z"/>
<path d="M7419 5459 c-1 -27 -1 -100 0 -141 1 -33 11 -36 29 -7 17 27 29 159
14 159 -6 0 -17 3 -26 6 -12 4 -16 0 -17 -17z"/>
<path d="M2922 5403 c-66 -32 -129 -144 -177 -313 -32 -113 -34 -188 -7 -250
47 -110 201 -154 326 -95 44 21 115 82 127 109 5 12 18 36 29 54 26 42 48 135
45 187 -5 97 -25 152 -81 222 -61 75 -195 119 -262 86z m118 -93 c31 -31 60
-97 76 -171 21 -104 9 -176 -43 -256 -35 -54 -85 -83 -142 -83 -80 0 -119 122
-82 260 34 128 43 155 61 190 39 77 90 100 130 60z"/>
<path d="M6338 5397 c-28 -24 -78 -111 -109 -191 -35 -89 -119 -265 -130 -272
-13 -8 -39 39 -39 71 0 76 -81 327 -112 346 -19 12 -59 -4 -87 -37 -46 -52
-123 -189 -191 -339 -31 -67 -33 -158 -5 -179 11 -9 28 -16 38 -16 31 0 77 33
84 60 14 62 57 196 79 247 8 17 14 36 14 42 0 35 22 -2 59 -99 48 -125 93
-199 134 -218 24 -12 32 -11 55 4 49 32 96 101 170 249 91 182 133 297 124
338 -5 24 -51 21 -84 -6z"/>
<path d="M6844 5407 c-36 -19 -66 -53 -100 -112 -57 -102 -105 -264 -106 -355
-2 -192 187 -280 378 -178 47 25 93 83 133 167 33 70 36 83 35 161 0 97 -21
155 -79 226 -58 71 -204 122 -261 91z m115 -96 c43 -43 91 -177 91 -253 0 -94
-59 -205 -126 -238 -122 -60 -192 31 -159 207 28 148 58 231 99 276 30 32 68
35 95 8z"/>
<path d="M2156 5373 c-37 -8 -90 -23 -116 -33 -38 -15 -63 -18 -112 -14 -62 6
-63 6 -96 -30 -18 -19 -43 -38 -57 -42 -18 -4 -27 -16 -35 -42 -11 -40 0 -62
31 -62 26 0 24 -15 -17 -127 -85 -235 -95 -268 -97 -338 -2 -69 -2 -70 24 -73
43 -5 68 42 91 166 19 102 54 201 120 339 27 56 34 63 82 82 28 12 65 24 81
27 17 3 46 9 65 14 46 13 130 13 130 0 0 -14 -51 -38 -153 -71 -104 -34 -163
-68 -179 -105 -20 -42 3 -53 192 -90 97 -19 157 -45 192 -84 41 -44 63 -50 73
-20 19 60 -40 129 -175 203 l-75 42 45 7 c107 16 127 21 165 37 54 24 77 53
77 94 0 95 -114 148 -256 120z"/>
<path d="M4002 5365 c-64 -21 -211 -108 -261 -156 -51 -49 -75 -99 -66 -140 7
-31 66 -89 93 -90 121 -6 284 -35 331 -58 84 -43 79 -72 -17 -101 -65 -20 -73
-20 -188 -7 l-119 14 -22 -24 c-15 -15 -23 -37 -23 -58 0 -30 4 -35 38 -47 21
-7 76 -13 127 -12 172 1 359 85 381 172 19 70 -41 158 -131 191 -51 19 -173
45 -264 56 -25 3 -47 7 -49 10 -18 18 73 105 110 105 27 0 168 52 192 71 31
24 34 64 7 79 -26 13 -86 11 -139 -5z"/>
<path d="M7860 5353 c-171 -69 -302 -181 -302 -258 0 -72 49 -110 153 -120
177 -17 282 -46 322 -87 25 -26 11 -42 -62 -66 -59 -20 -95 -21 -237 -4 -39 4
-77 6 -83 4 -17 -6 -41 -57 -41 -86 0 -28 33 -42 126 -53 113 -13 316 49 384
117 48 48 55 87 24 149 -40 79 -117 115 -314 146 -63 10 -117 19 -119 21 -2 2
6 18 18 37 24 38 45 50 156 83 109 33 139 49 154 80 29 65 -62 84 -179 37z"/>
<path d="M5049 5347 c-15 -7 -55 -38 -90 -69 -35 -31 -75 -66 -89 -78 -261
-224 -410 -379 -410 -427 0 -29 32 -53 68 -53 36 0 77 38 159 150 l48 65 85
17 c47 9 103 17 126 18 l41 0 -1 -98 c-1 -110 12 -152 49 -152 41 0 70 54 91
174 7 43 16 81 18 83 2 3 33 7 68 10 68 6 78 13 78 56 0 27 -1 27 -65 27 l-65
0 6 130 c5 98 4 133 -6 145 -15 18 -74 19 -111 2z m-65 -179 c3 -13 6 -39 6
-59 l0 -36 -70 -13 c-39 -7 -72 -11 -75 -8 -6 6 113 138 125 138 4 0 10 -10
14 -22z"/>
<path d="M2510 5120 c-21 -21 -23 -29 -20 -70 2 -32 26 -50 64 -50 37 0 49 7
65 38 34 65 -57 134 -109 82z"/>
<path d="M3411 5121 c-17 -14 -24 -31 -23 -53 3 -94 142 -95 142 -1 0 64 -71
96 -119 54z"/>
<path d="M4383 5114 c-20 -20 -24 -31 -19 -57 10 -49 30 -62 92 -58 20 1 37
24 49 68 8 28 -36 73 -71 73 -14 0 -36 -12 -51 -26z"/>
<path d="M5479 5133 c-8 -2 -22 -16 -31 -31 -14 -23 -14 -32 -3 -59 17 -40 40
-53 78 -42 58 17 74 73 32 114 -23 24 -40 28 -76 18z"/>
<path d="M6443 5132 c-6 -4 -19 -20 -27 -36 -13 -26 -13 -33 0 -58 21 -41 57
-52 100 -32 33 16 41 36 34 84 -5 37 -73 64 -107 42z"/>
<path d="M7325 5115 c-22 -21 -26 -32 -21 -58 10 -49 30 -62 91 -58 27 1 56
50 48 82 -9 33 -26 48 -62 55 -24 5 -35 1 -56 -21z"/>
<path d="M3893 4628 c-25 -26 -46 -79 -73 -183 -14 -57 -22 -71 -39 -73 -11
-2 -21 -7 -21 -12 0 -19 24 -60 34 -60 20 0 47 58 57 122 14 87 38 165 55 183
9 8 27 15 41 15 32 0 25 24 -8 28 -16 2 -33 -6 -46 -20z"/>
<path d="M6265 4590 c-19 -8 -19 -9 3 -9 12 -1 22 4 22 9 0 6 -1 10 -2 9 -2 0
-12 -4 -23 -9z"/>
<path d="M6180 4569 c-24 -43 8 -167 52 -206 12 -10 18 -12 14 -6 -5 9 -2 11
8 7 9 -3 14 -10 11 -14 -2 -4 5 -16 18 -26 12 -10 19 -15 15 -10 -4 5 0 15 10
22 27 21 37 16 16 -8 l-19 -23 22 19 c13 10 20 22 18 26 -3 4 2 14 11 21 38
32 60 124 31 135 -19 7 -89 -25 -81 -37 3 -6 -17 1 -45 15 l-51 26 0 -37 c0
-21 7 -51 15 -67 9 -16 13 -31 10 -34 -12 -12 -35 73 -35 131 0 56 3 65 23 75
22 10 22 11 -5 11 -18 1 -31 -6 -38 -20z"/>
<path d="M6313 4583 c9 -2 23 -2 30 0 6 3 -1 5 -18 5 -16 0 -22 -2 -12 -5z"/>
<path d="M6350 4560 c-21 -7 -19 -8 18 -9 25 -1 43 -6 43 -13 5 -44 4 -76 -4
-98 -7 -20 -6 -23 4 -12 7 6 15 41 17 77 l4 65 -28 -1 c-16 -1 -40 -5 -54 -9z"/>
<path d="M4610 4519 c-46 -50 -98 -149 -107 -204 -5 -35 1 -27 43 54 28 53 69
116 96 143 38 39 43 48 27 48 -12 0 -38 -18 -59 -41z"/>
<path d="M3998 4545 c-3 -3 -3 -25 -1 -49 4 -29 0 -54 -12 -77 -33 -65 -72
-93 -63 -44 6 28 -6 34 -16 9 -17 -45 11 -114 47 -114 27 0 38 8 60 40 28 40
19 46 -15 11 -22 -22 -34 -29 -42 -21 -7 7 -7 15 -1 24 62 84 91 158 78 204
-5 21 -23 29 -35 17z"/>
<path d="M4980 4513 c-88 -100 -95 -243 -12 -243 11 0 30 13 41 29 31 43 26
61 -6 23 -20 -23 -32 -30 -42 -23 -12 7 -9 16 16 48 38 49 63 113 63 163 0 51
-17 52 -60 3z m27 -26 c-12 -75 -55 -152 -74 -134 -11 11 15 107 38 138 23 32
41 30 36 -4z"/>
<path d="M3467 4498 c-23 -60 -47 -141 -43 -145 8 -9 86 150 86 176 0 28 -29
7 -43 -31z"/>
<path d="M3959 4498 c-12 -23 -12 -23 10 -4 23 21 26 26 11 26 -5 0 -15 -10
-21 -22z"/>
<path d="M4475 4510 c-3 -5 -15 -35 -25 -66 -11 -31 -31 -77 -45 -102 -14 -25
-23 -47 -21 -50 15 -14 116 174 116 215 0 15 -16 17 -25 3z"/>
<path d="M5242 4488 c-6 -6 -12 -16 -12 -21 0 -5 -14 -34 -31 -64 -26 -45 -34
-52 -41 -39 -5 8 -7 34 -4 56 4 30 2 40 -7 37 -18 -6 -57 -79 -56 -107 0 -24
0 -24 14 5 15 33 16 33 21 -9 10 -86 34 -75 89 40 44 91 54 129 27 102z"/>
<path d="M5838 4452 c-9 -20 -20 -48 -24 -62 -6 -23 -5 -24 10 -11 23 20 58
89 51 101 -11 17 -20 11 -37 -28z"/>
<path d="M3604 4466 c-18 -14 -17 -15 14 -14 21 1 41 -6 54 -20 19 -18 20 -24
8 -52 -7 -17 -18 -34 -25 -38 -16 -9 -148 -127 -187 -166 -20 -21 -28 -38 -26
-55 2 -15 8 -25 13 -23 6 2 9 10 7 18 -6 31 32 70 144 149 91 64 127 117 116
171 -7 39 -80 57 -118 30z"/>
<path d="M3925 4440 c-9 -16 -11 -30 -6 -30 5 0 14 14 20 30 5 17 8 30 6 30
-3 0 -11 -13 -20 -30z"/>
<path d="M4288 4463 c-11 -3 -26 -32 -43 -83 -32 -95 -57 -130 -93 -130 -25
-1 -26 -2 -9 -14 39 -30 80 8 131 117 15 31 29 57 33 57 8 0 43 -42 43 -52 0
-5 4 -7 9 -3 25 15 -41 115 -71 108z"/>
<path d="M4745 4450 c-20 -22 -13 -39 9 -21 22 18 64 -4 83 -43 19 -40 33 -38
33 5 0 64 -84 104 -125 59z"/>
<path d="M5305 4462 c-45 -9 -37 -22 14 -22 29 0 61 -5 72 -10 22 -12 26 -59
7 -93 -11 -21 -10 -21 12 -6 43 28 51 50 33 86 -8 18 -23 35 -33 38 -26 8 -81
12 -105 7z"/>
<path d="M5683 4462 c-6 -4 -16 -26 -22 -50 -17 -60 -46 -125 -66 -145 -9 -9
-28 -17 -41 -17 -14 0 -22 -4 -19 -10 10 -17 64 -11 84 9 11 11 34 50 51 88
17 37 34 70 37 73 2 3 18 -11 34 -30 24 -29 29 -32 29 -15 0 44 -61 113 -87
97z"/>
<path d="M5920 4462 c0 -5 13 -15 30 -22 30 -13 60 -49 60 -74 0 -16 -37 -13
-71 4 -25 14 -25 14 -49 -26 -27 -42 -22 -53 9 -20 21 22 24 23 53 9 36 -19
74 -6 87 29 13 33 -29 98 -63 98 -6 0 -21 3 -33 6 -13 4 -23 2 -23 -4z"/>
<path d="M4625 4414 c-30 -30 -36 -42 -33 -72 3 -42 29 -53 63 -27 15 11 16
14 3 9 -17 -6 -36 20 -32 44 1 6 2 17 3 22 0 6 13 22 27 35 15 14 22 25 16 25
-6 0 -27 -16 -47 -36z"/>
<path d="M5303 4407 c-6 -6 -17 -31 -26 -55 -17 -42 -17 -43 2 -32 39 20 65
80 42 94 -5 3 -13 0 -18 -7z"/>
<path d="M6380 4377 l-23 -32 29 27 c15 15 26 30 23 33 -3 2 -16 -10 -29 -28z"/>
<path d="M4727 4303 c-26 -54 -65 -121 -87 -150 -21 -29 -36 -54 -32 -56 33
-20 95 68 150 211 35 89 36 92 24 92 -4 0 -29 -44 -55 -97z"/>
<path d="M3386 4303 c-4 -9 -2 -21 3 -26 15 -15 41 0 41 23 0 25 -35 28 -44 3z"/>
<path d="M6295 4239 c-40 -6 -39 -6 13 -8 51 -1 65 3 40 11 -7 2 -31 1 -53 -3z"/>
</g>
</svg>
