<?xml version="1.0" standalone="no"?>
<!DOCTYPE svg PUBLIC "-//W3C//DTD SVG 20010904//EN"
 "http://www.w3.org/TR/2001/REC-SVG-20010904/DTD/svg10.dtd">
<svg version="1.0" xmlns="http://www.w3.org/2000/svg"
 width="328.000000pt" height="328.000000pt" viewBox="0 0 328.000000 328.000000"
 preserveAspectRatio="xMidYMid meet">
<metadata>
Created by potrace 1.11, written by Peter Selinger 2001-2013
</metadata>
<g transform="translate(0.000000,328.000000) scale(0.100000,-0.100000)"
fill="#000000" stroke="none">
<path d="M274 1961 c-5 -5 -29 -11 -54 -12 -25 -2 -47 -6 -50 -10 -3 -4 -19
-9 -35 -11 -17 -2 -36 -9 -43 -16 -8 -7 -19 -9 -25 -5 -7 3 -9 3 -5 -2 4 -4 3
-16 -3 -26 -8 -16 -6 -19 11 -19 14 0 19 -4 15 -12 -4 -7 0 -5 7 4 8 9 26 18
41 20 14 2 29 7 33 11 4 4 18 7 30 7 13 0 26 5 29 10 3 6 11 10 16 10 6 0 7
-4 4 -10 -3 -6 1 -7 9 -4 11 4 16 0 16 -11 0 -9 -5 -13 -11 -9 -8 4 -8 1 -2
-12 15 -28 14 -207 0 -216 -9 -6 -8 -8 1 -8 7 0 11 -4 8 -9 -4 -5 -2 -21 4
-36 6 -17 7 -24 0 -20 -6 4 -7 -2 -1 -17 4 -13 7 -38 5 -55 -1 -18 2 -33 8
-33 6 0 7 -7 4 -16 -3 -8 -2 -12 4 -9 6 3 10 1 10 -6 0 -8 3 -9 13 0 8 6 16 8
19 5 3 -2 8 2 12 11 3 9 2 14 -2 11 -5 -3 -9 13 -10 35 -1 23 -4 45 -8 50 -3
5 0 9 6 9 6 0 9 4 5 9 -3 5 -1 12 5 16 5 3 10 1 10 -4 0 -6 13 -11 29 -11 17
0 32 -4 36 -10 3 -5 13 -6 22 -3 12 5 14 3 8 -7 -5 -8 -4 -11 2 -7 12 8 103
-23 103 -35 0 -4 7 -5 15 -2 8 4 15 1 15 -5 0 -5 13 -9 29 -8 16 1 27 5 24 10
-2 4 0 7 5 7 17 0 9 30 -10 36 -10 3 -18 10 -18 15 0 6 -4 7 -10 4 -5 -3 -10
-3 -10 2 0 4 -12 9 -27 10 -35 2 -55 6 -70 16 -7 5 -17 6 -22 2 -5 -3 -12 -1
-16 4 -3 5 -15 8 -26 6 -17 -3 -19 -2 -9 10 10 11 8 14 -7 11 -10 -2 -29 0
-43 4 -25 8 -25 8 7 15 18 4 38 13 44 21 6 7 26 16 45 20 19 3 32 10 29 14 -3
4 2 11 11 14 10 4 13 2 8 -7 -4 -6 4 -1 17 13 13 13 23 29 21 34 -2 5 4 3 13
-4 13 -11 15 -10 10 3 -4 8 -2 18 4 22 6 3 11 17 11 30 0 13 5 27 11 30 7 5 5
12 -5 23 -8 10 -15 20 -15 25 -1 4 -4 7 -7 6 -10 -1 -33 35 -28 43 3 4 -2 5
-11 1 -10 -3 -20 -1 -24 5 -4 7 -32 13 -61 14 -30 2 -58 7 -62 12 -4 6 -13 4
-22 -3 -12 -11 -16 -11 -16 -1 0 9 -4 9 -17 -1 -15 -12 -16 -12 -8 1 8 13 7
13 -9 1 -13 -11 -19 -12 -25 -3 -4 7 -11 8 -17 3z m70 -53 c-5 -9 -2 -9 9 1
14 11 17 11 17 0 0 -10 2 -11 8 -2 5 8 13 9 22 3 21 -14 32 -12 24 3 -6 9 -5
9 8 0 8 -7 18 -10 21 -6 4 3 7 1 7 -6 0 -7 4 -10 10 -6 5 3 18 -3 30 -15 11
-11 24 -20 29 -20 12 0 11 -41 -2 -57 -5 -7 -7 -13 -3 -13 3 0 -2 -8 -11 -18
-10 -11 -26 -18 -36 -16 -10 2 -15 -1 -12 -6 7 -11 -30 -32 -39 -23 -3 3 -6 2
-6 -4 0 -10 -46 -28 -62 -25 -5 1 -8 -2 -8 -8 0 -5 -6 -7 -14 -4 -8 3 -13 13
-11 22 1 9 -2 23 -8 30 -6 8 -6 12 1 12 6 0 10 9 9 20 -1 11 -5 20 -10 20 -5
0 -4 6 2 14 9 11 9 16 0 21 -8 6 -7 10 2 16 12 7 12 9 0 9 -11 0 -11 3 0 17
12 15 12 16 -1 8 -13 -8 -13 -7 -1 8 11 14 11 17 0 18 -8 0 -5 4 6 9 27 12 27
12 19 -2z"/>
<path d="M2787 1934 c2 -7 -1 -15 -6 -19 -6 -3 -9 -11 -6 -16 4 -5 2 -9 -3 -9
-6 0 -13 -11 -16 -25 -4 -16 -11 -23 -18 -19 -7 5 -8 3 -3 -6 4 -7 2 -16 -6
-21 -12 -7 -11 -9 1 -9 13 0 13 -1 0 -10 -12 -8 -12 -10 5 -10 17 0 17 -2 5
-10 -9 -6 -10 -10 -3 -10 6 0 15 5 18 10 4 6 11 8 16 5 5 -4 9 -2 9 4 0 6 10
20 23 32 12 12 15 18 7 14 -13 -8 -13 -7 0 9 8 10 15 25 16 34 2 8 8 18 14 22
17 10 17 15 0 31 -18 18 -60 20 -53 3z"/>
<path d="M1226 1814 c-3 -8 -10 -13 -15 -10 -5 3 -14 -1 -21 -10 -7 -8 -20
-12 -29 -9 -8 3 -13 3 -9 0 8 -9 -35 -52 -46 -47 -5 3 -6 0 -2 -7 4 -6 2 -18
-4 -26 -10 -11 -10 -15 -1 -15 7 0 10 -4 7 -8 -3 -5 4 -16 15 -25 10 -9 19
-13 19 -9 0 4 4 2 8 -5 8 -12 55 -25 104 -27 15 -1 31 -6 35 -10 5 -5 2 -6 -6
-1 -10 6 -12 4 -7 -4 6 -9 11 -9 22 0 11 9 14 8 14 -4 0 -8 7 -18 16 -21 15
-6 14 -10 -7 -32 -12 -13 -29 -22 -36 -20 -7 3 -15 0 -19 -6 -5 -7 -2 -8 6 -3
8 5 11 4 7 -2 -3 -5 -23 -8 -44 -6 -71 6 -91 3 -98 -14 -3 -8 2 -22 11 -30 20
-20 111 -25 118 -6 3 7 16 13 28 13 13 0 32 12 43 26 11 14 28 32 37 41 11 11
14 22 8 37 -4 12 -8 26 -8 31 0 6 -8 15 -18 20 -10 6 -24 16 -32 23 -7 6 -16
12 -18 12 -3 0 -2 -6 2 -12 5 -10 4 -10 -6 -1 -7 6 -18 9 -25 7 -7 -3 -16 -1
-20 5 -3 6 -20 11 -36 11 -17 0 -28 4 -24 10 3 6 -1 7 -9 4 -9 -3 -16 -1 -16
6 0 6 -4 8 -10 5 -13 -8 -13 1 1 26 6 12 17 18 25 15 10 -4 12 -2 8 6 -5 8 -2
9 10 5 9 -4 15 -3 12 2 -3 5 1 12 10 15 10 4 13 2 8 -7 -6 -9 -5 -9 7 0 8 6
26 10 40 9 18 -2 28 4 36 21 9 19 8 23 -4 23 -8 0 -12 4 -9 8 7 12 -26 11 -41
-1 -9 -6 -13 -6 -13 2 0 16 -17 13 -24 -5z"/>
<path d="M1696 1814 c4 -10 4 -16 -1 -12 -4 4 -16 -2 -26 -14 -11 -11 -19 -17
-19 -12 0 5 -5 1 -11 -9 -6 -9 -15 -14 -21 -11 -6 4 -8 3 -4 -4 3 -6 -6 -20
-20 -31 -15 -12 -24 -21 -20 -21 4 0 1 -6 -6 -14 -7 -8 -16 -12 -21 -9 -4 2
-6 1 -5 -4 4 -12 -34 -85 -52 -101 -13 -12 -13 -13 0 -6 12 6 13 5 4 -7 -5 -8
-9 -25 -7 -39 2 -14 4 -30 5 -36 1 -6 6 -11 12 -12 6 -1 26 -3 44 -5 17 -3 32
0 32 5 0 5 4 7 9 4 5 -3 14 1 21 9 6 7 18 11 26 8 10 -4 12 0 7 13 -4 12 -3
15 5 10 7 -4 12 -3 12 3 0 5 9 12 20 16 11 3 19 9 19 13 -3 21 2 32 13 26 8
-5 9 -2 5 10 -6 14 -3 17 8 12 9 -3 14 -2 11 3 -3 4 0 16 7 25 11 15 13 8 12
-46 0 -35 2 -67 5 -73 2 -5 5 -14 5 -20 0 -13 48 -14 57 -1 4 5 3 17 -2 25 -4
9 -7 35 -5 59 1 23 -2 42 -8 42 -6 0 -5 5 2 13 8 10 7 17 -2 27 -10 10 -9 11
2 5 10 -6 12 -2 6 14 -3 11 -7 31 -9 44 -1 13 -6 28 -10 35 -4 7 -5 19 -2 27
3 9 -1 15 -9 15 -8 0 -15 6 -15 14 0 10 -9 14 -27 12 -16 -1 -34 2 -41 7 -9 7
-11 5 -6 -9z m57 -64 c9 -10 9 -11 0 -6 -7 4 -13 2 -13 -3 0 -6 6 -11 13 -12
9 0 9 -2 -1 -6 -6 -2 -10 -9 -6 -14 3 -5 0 -9 -6 -9 -6 0 -9 -4 -5 -9 3 -6 -3
-14 -12 -20 -10 -6 -14 -11 -9 -11 6 0 1 -7 -10 -16 -10 -8 -12 -12 -4 -8 8 4
0 -8 -17 -26 -18 -18 -33 -36 -33 -41 0 -5 -7 -9 -16 -9 -9 0 -12 -5 -8 -12 5
-7 2 -9 -9 -5 -9 3 -17 2 -19 -4 -5 -15 -46 -19 -51 -5 -7 17 32 98 43 91 6
-3 7 1 4 9 -3 9 -1 16 4 16 6 0 13 9 17 19 3 11 15 23 25 26 11 3 19 11 17 17
-1 7 10 18 26 25 15 8 27 18 27 23 0 12 28 6 43 -10z"/>
<path d="M3100 1822 c-6 -2 -8 -7 -5 -11 2 -5 -7 -7 -20 -5 -14 1 -23 -2 -19
-7 3 -5 0 -10 -5 -10 -6 -1 -15 -2 -19 -3 -5 0 -16 -9 -26 -18 -10 -10 -22
-18 -28 -18 -6 0 -8 -3 -5 -7 4 -3 2 -12 -3 -19 -12 -13 -23 -61 -13 -50 3 3
13 -3 20 -14 8 -11 19 -18 24 -15 5 4 9 3 9 -2 0 -4 11 -13 25 -20 14 -6 23
-7 19 -2 -6 10 9 12 20 2 3 -4 21 -7 38 -8 18 -1 34 -7 36 -13 2 -7 8 -10 13
-6 5 3 12 -2 15 -10 3 -9 11 -13 16 -9 6 3 2 -8 -8 -26 -13 -22 -25 -31 -36
-27 -10 2 -16 0 -12 -5 3 -5 -3 -10 -13 -11 -10 0 -25 -2 -33 -3 -8 -1 -24 4
-36 11 -18 10 -23 10 -34 -6 -8 -11 -16 -17 -20 -15 -3 2 -6 -5 -6 -15 0 -10
3 -17 7 -14 4 2 9 -1 11 -8 5 -13 108 -18 108 -5 0 5 4 6 9 2 5 -3 12 -1 16 5
4 6 11 7 17 4 6 -4 8 -2 4 4 -3 6 3 13 14 17 39 12 92 115 59 115 -5 0 -9 7
-9 15 0 9 -10 15 -26 15 -14 0 -23 4 -20 9 5 7 -67 26 -86 22 -5 0 -8 4 -8 10
0 5 -5 7 -10 4 -6 -4 -18 -1 -27 7 -14 11 -16 11 -9 0 7 -11 4 -12 -13 -3 -11
7 -21 16 -21 21 0 15 43 50 61 50 10 0 21 5 24 10 4 7 13 6 27 -1 16 -9 19 -8
13 2 -6 9 -3 11 8 6 9 -3 19 -2 22 4 4 5 11 6 17 3 7 -4 7 0 0 12 -5 11 -8 24
-6 29 4 9 -53 14 -76 7z"/>
<path d="M810 1801 c0 -7 -11 -24 -25 -37 -14 -13 -25 -32 -23 -41 2 -10 -3
-17 -9 -15 -8 1 -13 -8 -13 -23 0 -14 -4 -25 -10 -25 -5 0 -7 -7 -4 -15 4 -8
2 -15 -3 -15 -4 0 -8 -24 -8 -52 0 -38 5 -58 17 -69 10 -9 18 -22 18 -29 0 -7
8 -10 20 -7 11 3 20 2 20 -2 0 -14 93 -4 104 11 6 8 16 13 21 11 6 -2 19 10
28 27 10 17 22 28 26 26 4 -3 8 5 8 17 1 12 7 23 13 25 5 2 8 8 5 12 -3 5 -1
11 5 15 5 3 10 0 10 -7 0 -23 17 -41 41 -42 28 -2 48 14 42 30 -2 7 1 15 7 19
20 13 -26 42 -59 37 -17 -2 -28 -9 -25 -14 4 -6 -2 -8 -12 -6 -11 2 -18 11
-16 21 2 9 -2 17 -8 17 -5 0 -10 7 -10 16 0 8 -4 13 -8 10 -5 -3 -15 6 -23 20
-15 29 -50 47 -74 38 -11 -5 -15 1 -15 21 0 17 -4 24 -11 19 -6 -3 -15 0 -20
7 -7 12 -9 12 -9 0z m68 -106 c4 -5 18 -17 31 -25 67 -45 2 -153 -92 -152 -24
1 -49 21 -41 34 4 6 0 14 -7 19 -9 6 -10 9 -2 9 7 0 10 10 7 26 -3 18 -1 23 7
18 8 -4 9 -3 5 5 -4 6 -2 18 4 26 7 8 9 15 5 15 -4 0 -2 7 5 15 7 8 17 12 24
8 6 -4 5 0 -2 9 -11 14 -10 18 5 27 14 8 21 6 30 -7 7 -9 16 -21 21 -27z"/>
<path d="M1954 1788 c-3 -10 -10 -16 -15 -13 -5 3 -6 -1 -3 -9 3 -9 9 -16 14
-16 4 0 6 -22 6 -50 -1 -27 1 -50 4 -50 3 0 6 -24 5 -52 -1 -29 3 -58 8 -65 5
-7 6 -17 2 -23 -6 -9 -1 -11 35 -14 20 -2 39 24 32 43 -4 9 -1 12 7 7 8 -5 12
-3 10 5 -3 28 1 40 14 33 6 -4 9 -4 5 1 -4 4 -2 15 5 23 9 13 9 14 0 8 -7 -4
-13 -2 -13 3 0 6 4 11 9 11 5 0 11 9 14 21 4 14 10 18 19 13 11 -6 11 -5 0 8
-10 13 -10 17 3 22 9 3 14 10 11 15 -3 5 0 14 8 20 10 8 16 8 25 -2 6 -8 8
-16 5 -20 -10 -10 -11 -57 -1 -57 6 0 6 -5 0 -12 -5 -7 -8 -43 -8 -80 1 -44
-2 -65 -9 -60 -6 3 -5 -2 3 -11 7 -9 10 -17 6 -17 -4 0 -2 -7 5 -15 16 -19 50
-2 50 26 0 13 4 18 12 13 8 -5 8 -3 2 7 -5 8 -9 52 -10 99 0 47 -4 96 -8 109
-6 18 -5 22 5 15 11 -6 12 -5 2 7 -6 8 -12 17 -12 21 -4 24 -14 34 -36 36 -24
2 -69 -31 -58 -42 3 -3 -2 -8 -11 -12 -9 -3 -16 -12 -16 -20 0 -8 -5 -14 -11
-14 -5 0 -7 -4 -4 -10 3 -5 -1 -20 -10 -33 -8 -13 -12 -27 -8 -32 5 -4 2 -4
-6 0 -10 6 -13 4 -9 -7 4 -8 1 -15 -5 -15 -8 0 -13 30 -14 91 -1 54 -6 92 -12
94 -6 2 -9 8 -6 12 3 5 -4 8 -15 7 -11 -1 -23 -9 -26 -19z"/>
<path d="M2435 1791 c3 -5 -3 -12 -14 -16 -21 -6 -76 -109 -67 -124 4 -5 -1
-17 -10 -25 -10 -10 -11 -16 -3 -16 8 0 8 -5 -2 -17 -11 -13 -11 -17 -1 -21 9
-3 10 -7 2 -17 -8 -9 -7 -17 4 -28 8 -8 12 -18 8 -21 -3 -4 4 -9 16 -13 12 -3
19 -9 16 -14 -3 -5 3 -9 13 -9 11 0 25 -6 32 -12 11 -10 12 -10 7 -1 -5 9 4
12 31 11 20 -1 39 4 41 10 2 7 10 12 18 12 8 0 14 6 14 13 0 9 3 8 9 -2 7 -11
10 -9 16 8 3 11 11 21 16 21 6 0 7 5 4 10 -3 6 -2 10 3 10 14 0 41 66 32 80
-4 7 -6 20 -2 28 3 10 1 13 -6 8 -7 -4 -12 -1 -12 8 0 9 -5 16 -11 16 -5 0 -7
5 -3 12 4 6 3 8 -3 5 -10 -6 -46 28 -56 54 -4 12 -6 12 -6 0 -1 -11 -4 -11
-18 0 -11 9 -14 10 -9 2 5 -9 2 -11 -8 -7 -11 4 -13 11 -6 23 6 13 5 18 -5 18
-8 0 -11 -5 -8 -11 3 -6 0 -5 -8 2 -15 14 -33 16 -24 3z m42 -56 c0 -8 -5 -11
-11 -8 -6 4 3 -7 19 -24 17 -16 32 -29 33 -27 7 5 39 -31 35 -38 -2 -5 1 -8 7
-8 7 0 8 -6 1 -19 -6 -10 -7 -21 -4 -25 3 -3 1 -6 -6 -6 -7 0 -9 -4 -6 -10 3
-5 -1 -10 -10 -10 -9 0 -14 -4 -11 -8 3 -5 -11 -15 -30 -24 -19 -9 -37 -12
-39 -7 -3 4 -14 6 -25 4 -13 -2 -20 2 -20 11 0 8 -5 14 -10 14 -6 0 -9 14 -8
30 1 17 6 30 10 30 4 0 5 9 3 20 -2 11 -1 20 3 20 6 0 33 58 32 68 -1 5 25 31
31 32 3 0 6 -7 6 -15z"/>
<path d="M603 1712 c-21 -16 -27 -61 -11 -77 11 -12 48 -13 54 -3 4 6 3 8 -3
5 -5 -3 -10 0 -10 8 0 19 2 19 23 -2 13 -13 16 -14 12 -3 -3 8 -1 24 5 35 10
19 9 19 -8 5 -10 -8 -16 -10 -12 -3 11 18 -3 42 -20 36 -11 -4 -14 -2 -9 5 10
16 5 15 -21 -6z"/>
<path d="M1861 1696 c-1 -11 -6 -16 -14 -13 -10 4 -13 -7 -13 -41 1 -44 2 -45
34 -47 17 -1 32 2 32 7 0 4 7 8 16 8 8 0 12 5 9 10 -3 6 0 10 7 11 7 0 4 4 -7
9 -14 6 -15 9 -5 10 12 0 11 3 -3 11 -9 6 -14 15 -11 21 5 7 0 9 -14 6 -14 -4
-22 -1 -25 11 -4 13 -5 13 -6 -3z"/>
<path d="M2820 1692 c0 -5 -7 -9 -16 -8 -9 0 -18 -7 -20 -17 -1 -11 -5 -21 -8
-24 -2 -3 6 -16 20 -29 19 -20 28 -23 43 -15 10 6 22 7 26 3 5 -4 5 -1 1 6 -5
8 -1 12 11 12 11 0 14 3 7 8 -6 4 -14 20 -18 36 -4 15 -10 26 -13 22 -3 -3
-12 -1 -20 5 -8 7 -13 8 -13 1z"/>
<path d="M2241 1676 c-6 -8 -11 -30 -9 -49 1 -28 6 -34 22 -32 12 0 27 -4 35
-9 11 -8 13 -8 8 0 -4 7 0 17 8 24 20 16 19 33 -2 56 -23 24 -47 28 -62 10z"/>
<path d="M1405 1670 c3 -5 1 -11 -5 -15 -6 -4 -8 -11 -5 -16 4 -5 1 -9 -4 -9
-6 0 -9 -10 -7 -22 2 -15 9 -22 21 -20 9 2 15 0 12 -5 -3 -4 8 -8 23 -8 16 -1
27 2 24 6 -2 4 0 9 6 11 13 4 22 48 9 48 -5 0 -9 6 -9 13 0 8 -6 14 -12 15 -7
0 -23 3 -36 6 -12 3 -20 1 -17 -4z"/>
</g>
</svg>
