<svg xmlns="http://www.w3.org/2000/svg" xmlns:xlink="http://www.w3.org/1999/xlink" width="400" height="400" viewBox="0 0 400 NaN" xmlns:v="https://vecta.io/nano"><g fill-rule="evenodd"><path d="M191 24c-.136.22-1.01.4-1.944.4s-1.887.191-2.12.425-.996.442-1.694.461-1.364.189-1.48.375-.74.339-1.386.339-1.176.18-1.176.4-.44.4-.976.4-1.088.18-1.224.4-.597.4-1.024.4-.776.18-.776.4-.25.4-.554.4c-.83 0-2.673 1.04-2.373 1.339.143.144-.22.261-.806.261s-1.067.18-1.067.4-.236.4-.525.4-.91.36-1.383.8-1 .8-1.175.8c-.517.001-2.35 1.743-2.632 2.5-.143.385-.46.7-.703.7-.633 0-5.582 5.183-5.582 5.846 0 .305-.137.554-.304.554s-.54.379-.83.842-.333.722-.097.576.43-.118.43.062-.36.552-.8.827-.8.781-.8 1.124c0 .518-.196.484-1.162-.204-.64-.455-1.36-.827-1.6-.827s-.438-.18-.438-.4-.36-.4-.8-.4-.8-.18-.8-.4-.44-.4-.976-.4-1.088-.18-1.224-.4-.676-.4-1.2-.4-1.064-.18-1.2-.4-.856-.4-1.6-.4-1.467-.185-1.606-.41c-.325-.525-16.885-.49-17.21.037-.126.205-1.04.373-2.03.373-1.098 0-1.704.156-1.553.4.147.238-.32.4-1.153.4-.77 0-1.51.18-1.647.4s-.766.4-1.4.4-1.264.18-1.4.4-.597.4-1.024.4-.776.18-.776.4-.35.4-.776.4-.888.18-1.024.4-.6.4-1 .4-.955.36-1.2.8c-.27.505-.838.8-1.54.8-.6 0-1.497.36-1.97.8s-1.018.8-1.213.8-.68.36-1.08.8-.94.8-1.203.8-1.043.54-1.734 1.2-1.43 1.2-1.645 1.2-.583.36-.818.8-.606.8-.824.8c-.508 0-6.376 5.971-6.376 6.489 0 .214-.565.918-1.255 1.562s-1.15 1.276-1.025 1.403-.208.637-.745 1.134-.975 1.318-.975 1.825-.116.804-.26.662c-.29-.29-2.14 3.163-2.14 3.993 0 .293-.18.532-.4.532s-.4.33-.4.733-.127.86-.282 1.015-.346.77-.424 1.367-.312 1.256-.52 1.465S86 77.233 86 78.056s-.18 1.608-.4 1.744-.4 1.937-.4 4.024c0 4.135.084 4.017-2.7 3.792-.495-.04-.9.12-.9.355 0 .272-1.25.429-3.4.429-2 0-3.4.165-3.4.4 0 .22-.72.4-1.6.4s-1.6.18-1.6.4-.36.4-.8.4-.8.18-.8.4-.52.4-1.157.4c-.654 0-1.256.258-1.385.593s-.493.492-.843.357c-.338-.129-.615-.036-.615.207s-.36.443-.8.443-.8.18-.8.4-.236.4-.525.4-.91.36-1.383.8-1.008.8-1.19.8-1.13.72-2.1 1.6-1.918 1.6-2.102 1.6c-.477 0-6.298 5.98-6.298 6.471 0 .224-.565.936-1.255 1.58s-1.16 1.266-1.046 1.381-.4.855-1.145 1.644S46 110.757 46 111.056s-.2.544-.443.544-.336.277-.207.615c.135.35-.02.713-.357.843-.326.125-.593.444-.593.709s-.36.869-.8 1.341-.8 1.136-.8 1.475-.18.617-.4.617-.4.33-.4.733-.125.858-.277 1.011-.338.677-.412 1.166-.31.95-.523 1.023-.388.659-.388 1.3-.18 1.167-.4 1.167-.4.529-.4 1.176-.18 1.288-.4 1.424-.4.867-.4 1.624-.18 1.376-.4 1.376-.4 1.04-.4 2.32c0 1.314-.215 2.535-.497 2.817-.395.395-.375.573.1.874.4.251.43.379.097.383-.366.004-.5 1.076-.5 4.006s.134 4.002.5 4.006c.334.004.302.132-.097.383-.475.301-.495.479-.1.874.274.274.497 1.361.497 2.417s.18 1.92.4 1.92.4.72.4 1.6.18 1.6.4 1.6.4.439.4.976.18 1.088.4 1.224.4.597.4 1.024.18.776.4.776.4.36.4.8.18.8.4.8.4.36.4.8.18.8.4.8.4.36.4.8c0 .533-.267.8-.8.8-.44 0-.8.18-.8.4s-.317.4-.704.4-.928.36-1.203.8-.762.8-1.082.8-.776.36-1.01.8-.692.8-1.014.8-.586.249-.586.554-.405.827-.9 1.16c-1.43.961-3.9 3.357-3.9 3.781 0 .212-.54.951-1.2 1.642s-1.2 1.527-1.2 1.859-.135.605-.3.607-.498.407-.74.9L26 178.4l-1.26 2.495c-.193.382-.35.967-.35 1.3s-.18.605-.4.605-.4.542-.4 1.205-.18 1.563-.4 2l-.83 1.637c-.34.668-.32.78.1.541.426-.242.432-.195.03.238-.275.297-.5 1.133-.5 1.859s-.19 1.32-.425 1.32-.393.315-.354.7c.205 2.019-.067 6.119-.392 5.918-.22-.137-.372 1.643-.372 4.376 0 2.568.165 4.606.372 4.606s.37 1.314.37 2.92.165 3.091.366 3.3.423 1.01.493 1.78.34 1.827.602 2.35.388 1.179.28 1.459-.003.629.232.774.427.704.427 1.241.18.976.4.976.4.439.4.976.18 1.088.4 1.224.4.597.4 1.024.18.776.4.776.4.36.4.8.18.8.4.8.4.36.4.8.18.8.4.8.4.236.4.525.36.911.8 1.383.8 1.012.8 1.2.405.777.9 1.309.853 1.111.797 1.285c-.135.415 2.32 2.865 3.212 3.208.38.146.69.475.69.731 0 .544 2.008 2.358 2.612 2.359.226 0 .67.36.988.8s.82.8 1.117.8.812.272 1.144.604.797.484 1.033.338c.255-.157.313-.078.144.196s-.03.462.338.462c.343 0 .624.18.624.4a.4.4 0 0 1-.4.4c-.22 0-.4.36-.4.8s-.18.8-.4.8-.4.36-.4.8-.18.8-.4.8-.4.36-.4.8-.18.8-.4.8-.4.302-.4.672c0 .752-.713 3.161-1.25 4.223-.193.382-.35 1.417-.35 2.3s-.155 1.605-.344 1.605c-.487 0-.532 13.906-.046 14.206.214.133.4.94.4 1.794s.18 1.664.4 1.8.4 1.047.4 2.024.18 1.776.4 1.776.4.54.4 1.2.18 1.2.4 1.2.4.349.4.776.18.888.4 1.024.4.687.4 1.224.18.976.4.976.4.36.4.8.18.8.4.8.4.36.4.8.18.8.4.8.4.36.4.8.18.8.4.8.4.32.4.712.36.971.8 1.288.8.854.8 1.192.36.84.8 1.115.8.747.8 1.048.72 1.29 1.6 2.197 1.6 1.807 1.6 2c0 .443 5.08 5.648 5.513 5.648.175 0 1.115.72 2.087 1.6s1.96 1.6 2.196 1.6.687.36 1.004.8.897.8 1.288.8.712.18.712.4.36.4.8.4.8.18.8.4.36.4.8.4.8.18.8.4.35.4.776.4.888.18 1.024.4.687.4 1.224.4.976.18.976.4.54.4 1.2.4 1.2.18 1.2.4.8.4 1.776.4 1.888.18 2.024.4 1.857.4 3.824.4H84.4v2c0 1.1.18 2 .4 2 .228 0 .4 1.192.4 2.776 0 1.527.18 2.888.4 3.024s.4.867.4 1.624.18 1.376.4 1.376.4.54.4 1.2.18 1.2.4 1.2.4.349.4.776.18.888.4 1.024.4.563.4.948.36 1.088.8 1.56.8 1.147.8 1.499.18.529.4.393.4.078.4.476.447 1.242.992 1.876.89 1.313.77 1.51-.01.308.245.248.676.243.93.675.958 1.3 1.563 1.93 1.104 1.358 1.11 1.616.663 1.009 1.464 1.669 1.852 1.605 2.337 2.1 1.086.9 1.336.9.454.18.454.4.3.4.667.4.55.117.407.26c-.297.297 1.715 2.139 2.338 2.14.226 0 .67.36.988.8s.814.8 1.105.8.915.36 1.387.8 1.185.8 1.583.8 1.085.36 1.525.8 1.07.8 1.4.8.6.18.6.4.324.4.72.4a2.15 2.15 0 0 1 1.259.5c.433.402.48.396.238-.03-.294-.517 1.216.12 1.783.753.1.123 1.235.467 2.5.764s2.3.692 2.3.877.62.336 1.376.336 1.488.18 1.624.4 1.216.4 2.4.4 2.268.187 2.41.414c.32.518 11.693.469 12.014-.051.123-.2 1.013-.363 1.977-.363s1.864-.18 2-.4.856-.4 1.6-.4 1.464-.18 1.6-.4.777-.4 1.424-.4 1.176-.18 1.176-.4.28-.4.624-.4.535-.143.427-.317.154-.343.58-.375 1.298-.43 1.934-.883c1.422-1.013 2.035-1.047 2.035-.113 0 .391.36.971.8 1.288s.8.854.8 1.192.36.84.8 1.115.8.723.8.996c.001.663 1.622 2.486 2.5 2.812.385.143.7.454.7.691 0 .544 1.39 1.926 3.2 3.184.77.535 1.69 1.296 2.047 1.691s.94.719 1.3.719.653.18.653.4.345.4.767.4.826.135.9.3c.192.432 3.505 2.1 4.17 2.1.31 0 .562.18.562.4s.315.403.7.406c.818.007 3.56.921 3.96 1.32.15.151.774.274 1.384.274s1.214.168 1.34.373.803.357 1.503.337 1.34.172 1.426.427c.102.304 1.37.463 3.698.463 1.996 0 3.654.18 3.797.411.312.505 7.793.451 7.793-.056 0-.195 1.43-.355 3.176-.355s3.288-.18 3.424-.4 1.032-.4 2-.4 1.806-.188 1.883-.418.586-.448 1.133-.485a6.11 6.11 0 0 0 1.965-.562c.535-.272 1.147-.385 1.362-.253s.263.036.105-.22c-.267-.433.715-.667 2.062-.492.275.036.5-.123.5-.352s.36-.418.8-.418.8-.18.8-.4.36-.4.8-.4.8-.18.8-.4.36-.4.8-.4.8-.152.8-.337.822-.76 1.827-1.277 2-1.265 2.214-1.663.696-.729 1.073-.736c.865-.016 1.857-.777 2.198-1.687.145-.385.495-.7.78-.7.54 0 1.74-1.581 1.594-2.1-.047-.165.05-.279.215-.253.796.126 1.3-.096 1.3-.572 0-.288.315-.882.7-1.32a12.26 12.26 0 0 0 1.2-1.675l1-1.765c.842-1.49 1.612-2.179 1.8-1.611.09.273.51.496.932.496s.767.18.767.4.46.4 1.024.4c.58 0 .916.173.776.4-.136.22.123.4.576.4s.824.158.824.35.488.35 1.083.35 1.15.203 1.234.45.675.45 1.316.45 1.167.18 1.167.4 1.06.4 2.376.4c1.307 0 2.476.16 2.596.355.32.517 10.647.527 11.27.011.28-.233 1.508-.423 2.728-.423s2.322-.167 2.45-.372.748-.371 1.382-.371 1.264-.18 1.4-.4.766-.4 1.4-.4 1.264-.18 1.4-.4.57-.4.962-.4c.816 0 3.112-1.072 3.443-1.608.12-.196.485-.256.808-.132s.587.026.587-.217.36-.443.8-.443.8-.18.8-.4.36-.4.8-.4.8-.18.8-.4.278-.4.617-.4 1.003-.36 1.475-.8 1.095-.8 1.383-.8.525-.18.525-.4.315-.402.7-.404 1.125-.542 1.645-1.2 1.2-1.196 1.515-1.196c.893 0 9.74-9.126 9.74-10.047 0-.44.16-.701.358-.579.352.218 1.03-.886.906-1.474-.035-.165.108-.3.317-.3s.68-.63 1.046-1.4.824-1.4 1.02-1.4.354-.36.354-.8.18-.8.4-.8.4-.36.4-.8.18-.8.4-.8.4-.36.4-.8.157-.8.35-.8.35-.487.35-1.083.203-1.151.45-1.234.45-.664.45-1.293.18-1.254.4-1.39.4-1.317.4-2.624c0-1.317.178-2.376.4-2.376.23 0 .4-1.267.4-3v-3l3.1-.046c1.705-.025 3.4-.017 3.765.019s.78-.123.923-.354.97-.419 1.836-.419 1.576-.18 1.576-.4.62-.4 1.376-.4 1.488-.18 1.624-.4.582-.4 1-.4.81-.203.894-.451.502-.476.933-.508c1.05-.078 3.783-1.441 3.783-1.887 0-.195.36-.354.8-.354.48 0 .8-.267.8-.667 0-.366.11-.557.243-.424s.617-.106 1.075-.533 1.07-.776 1.357-.776.525-.15.525-.332.493-.588 1.095-.9c1.323-.686 4.25-3.528 4.616-4.481.145-.378.47-.687.722-.687.562 0 3.167-2.788 3.167-3.39 0-.238.36-.693.8-1.01s.8-.773.8-1.013.325-.785.722-1.212.764-.955.815-1.175.446-.806.878-1.303.785-1.172.785-1.5.16-.597.353-.597.454-.315.576-.7.53-1.24.907-1.9c1.093-1.914 1.364-2.549 1.364-3.195 0-.333.18-.605.4-.605s.4-.63.4-1.4.18-1.4.4-1.4.4-.349.4-.776.18-.888.4-1.024.4-.777.4-1.424.143-1.176.318-1.176.364-.67.42-1.488.236-1.583.403-1.7.348-1.636.403-3.378.268-3.481.475-3.867c.26-.485.22-.765-.12-.904-.372-.151-.346-.311.103-.633.533-.382.533-.474 0-.83-.518-.345-.522-.45-.026-.77.434-.279.464-.502.124-.912-.248-.299-.49-1.849-.535-3.445s-.238-2.996-.424-3.111-.34-.831-.34-1.591c0-1.327-.107-1.673-1.138-3.666-.254-.492-.462-1.257-.462-1.7s-.18-.805-.4-.805-.4-.36-.4-.8-.18-.8-.4-.8-.4-.36-.4-.8-.16-.8-.353-.8-.448-.36-.563-.8-.038-.8.17-.8.766-.36 1.238-.8 1.095-.8 1.383-.8.525-.18.525-.4.264-.4.587-.4c.752 0 9.013-8.28 9.013-9.034 0-.311.18-.566.4-.566s.4-.32.4-.712.36-.971.8-1.288.8-.882.8-1.255.135-.738.3-.812c.3-.129 1.787-3.088 2.597-5.133.218-.55.555-1.313.75-1.695a3.88 3.88 0 0 0 .353-1.476c0-.43.18-.893.4-1.029s.4-.856.4-1.6.18-1.464.4-1.6.4-.957.4-1.824.185-1.576.41-1.576c.272 0 .4-3.266.375-9.6-.022-5.667-.19-9.6-.412-9.6-.206 0-.374-.9-.374-2s-.18-2-.4-2-.4-.529-.4-1.176-.18-1.288-.4-1.424-.4-.867-.4-1.624-.18-1.376-.4-1.376-.4-.439-.4-.976-.18-1.088-.4-1.224-.4-.597-.4-1.024-.18-.776-.4-.776-.4-.36-.4-.8-.18-.8-.4-.8-.4-.36-.4-.8-.18-.8-.4-.8-.4-.32-.4-.712-.36-.971-.8-1.288-.8-.785-.8-1.039-.294-.707-.654-1.006-1.1-1.266-1.666-2.149c-1.005-1.598-5.305-5.914-5.6-5.62-.085.084-.752-.463-1.484-1.216s-1.615-1.37-1.964-1.37-.633-.18-.633-.4-.36-.4-.8-.4c-1.078 0-1.066-1.563.02-2.73.452-.484.724-1.038.605-1.23s.052-.572.38-.844.596-.821.596-1.221.18-.839.4-.975.4-.599.4-1.029.167-1.094.37-1.476c.954-1.787 1.1-2.461 1.178-5.819.028-1.058.206-1.828.395-1.711s.353-2.122.365-4.976c.012-2.884-.14-5.189-.343-5.189s-.366-.979-.366-2.176-.18-2.288-.4-2.424-.4-.856-.4-1.6-.18-1.464-.4-1.6-.4-.777-.4-1.424-.18-1.176-.4-1.176-.4-.54-.4-1.2-.18-1.2-.4-1.2-.4-.371-.4-.824-.18-.712-.4-.576-.427-.078-.46-.476l-.104-1.216c-.024-.271-.357-.858-.74-1.305s-.696-.973-.696-1.17c0-.697-1.816-3.85-2.898-5.033-.604-.66-1.1-1.499-1.1-1.864s-.542-1.119-1.202-1.675-1.2-1.276-1.2-1.601c0-.625-2.136-2.942-3.432-3.723-.422-.254-.723-.659-.668-.9s-.097-.392-.337-.337-.646-.252-.9-.683c-.663-1.121-1.118-1.542-2.363-2.185-.605-.312-1.1-.727-1.1-.923s-.18-.245-.4-.109-.4-.033-.4-.376c0-.351-.34-.624-.777-.624-.428 0-1.028-.357-1.334-.794-.648-.926-6.45-4.006-7.544-4.006-.4 0-.745-.18-.745-.4s-.54-.4-1.2-.4-1.2-.18-1.2-.4-.53-.4-1.176-.4-1.27-.15-1.383-.334-1.34-.374-2.724-.423-2.688-.259-2.897-.466-1.334-.377-2.5-.377H314l-.06-3.7c-.07-4.338-.073-4.362-.45-4.964-.16-.256-.33-.976-.376-1.6s-.302-1.563-.567-2.086-.387-1.197-.27-1.5.012-.55-.23-.55-.443-.36-.443-.8-.18-.8-.4-.8-.4-.253-.4-.562c0-.666-1.668-3.979-2.1-4.171-.165-.074-.3-.479-.3-.9s-.15-.767-.332-.767-.588-.495-.9-1.1-.975-1.429-1.472-1.832-.804-.894-.68-1.092c.253-.41-3.17-3.976-3.817-3.976-.233 0-.54-.315-.683-.7-.303-.818-1.463-1.903-3.015-2.821-.605-.359-1.1-.793-1.1-.965s-.258-.314-.573-.314-.678-.331-.807-.736-.725-.989-1.327-1.297-1.384-.878-1.74-1.264-.926-.703-1.267-.703-.68-.135-.753-.3-1.033-.742-2.133-1.282-2.54-1.35-3.2-1.799-1.245-.772-1.3-.717c-.363.357-1.685-.029-2.408-.702-.472-.44-1.316-.8-1.875-.8S278 42.638 278 42.44s-.653-.36-1.452-.36-1.563-.163-1.7-.362-.968-.406-1.847-.46-1.77-.268-1.98-.477c-.517-.517-16.74-.501-17.26.017-.218.218-.93.431-1.58.472s-1.4.247-1.69.458-.82.415-1.2.455c-.78.083-1.952.493-2.988 1.046-.382.204-.952.371-1.266.371s-.632.141-.706.312c-.285.669-2.928 1.668-3.093 1.17-.088-.265-.268-.572-.4-.682s-.465-.605-.74-1.1l-1-1.796c-.275-.492-.815-1.188-1.2-1.547s-.7-.817-.7-1.021c0-.52-2.82-3.451-3.074-3.195-.115.115-.596-.198-1.068-.695s-1.173-1.022-1.558-1.163-.7-.511-.7-.82-.54-.671-1.2-.803c-.704-.141-1.2-.492-1.2-.85 0-.343-.35-.61-.8-.61-.44 0-.8-.18-.8-.4s-.236-.4-.525-.4-.882-.333-1.32-.74-1.455-.865-2.262-1.016-1.7-.5-1.98-.774-.96-.529-1.507-.567-1.057-.255-1.133-.485-.665-.418-1.306-.418-1.167-.151-1.167-.335-.662-.36-1.47-.391-1.573-.221-1.7-.424c-.512-.825-20.944-1.635-21.43-.85m-19 21.8c-.283.341-.604.529-.714.419s.03-.478.314-.819.604-.529.714-.419-.03.478-.314.819m59.6 6.249c0 .696-.712.332-.922-.472-.176-.675-.113-.738.353-.351.313.26.57.63.57.823m39.6.751c.466.301.35.389-.524.394-.648.003-1.02-.163-.876-.394.307-.497.63-.497 1.4 0m-117.8 4c.136.22-.134.4-.6.4s-.736-.18-.6-.4.406-.4.6-.4.464.18.6.4m148.594 23.3c.003.165-.174.3-.394.3s-.397-.405-.394-.9c.006-.859.77-.277.788.6m.64 12.198c-.43.43-.658-.172-.356-.941.283-.721.304-.722.445-.026.08.403.04.838-.09.967M215 99.2c-.157.254.93.4 2.976.4 1.883 0 3.224.166 3.224.4 0 .22.71.4 1.576.4s1.68.168 1.807.373.803.357 1.503.337 1.34.172 1.426.427.76.463 1.498.463 1.454.18 1.6.4.65.4 1.144.4 1.112.216 1.376.48.48.348.48.187.816.163 1.814.72 2.073 1.013 2.388 1.013 1.215.36 1.998.8 1.78.8 2.212.8.788.152.788.337.855.771 1.9 1.3 1.96 1.098 2.033 1.263.396.3.717.3.97.36 1.442.8 1.095.8 1.383.8.525.18.525.4.225.4.5.401 1.13.54 1.9 1.199 1.56 1.199 1.753 1.199.644.335 1 .744 1.043.868 1.527 1.02c.55.174.796.494.657.857-.16.421.082.58.887.58.6 0 1.003.107.872.237-.33.33 4.765 5.363 5.43 5.363.297 0 .794.495 1.105 1.1s.88 1.391 1.267 1.747.703.844.703 1.084.72 1.151 1.6 2.022 1.6 1.789 1.6 2.039.208.327.462.17c.276-.171.353-.111.192.15-.148.24.184.89.738 1.444s1.008 1.246 1.008 1.538.36.789.8 1.106.8.878.8 1.246.28.776.625.908.53.394.414.583.142.722.575 1.186.786 1.121.786 1.46.18.617.4.617.4.36.4.8.18.8.4.8.4.345.4.767.175.826.388.9.446.493.515.933.434 1.413.812 2.161.685 1.604.685 1.9.18.539.4.539.4.439.4.976.18 1.088.4 1.224.4.676.4 1.2.18 1.064.4 1.2.4.777.4 1.424.18 1.176.4 1.176.4.641.4 1.424.147 1.332.326 1.221.37.644.423 1.677.266 2.049.473 2.258.378 1.319.378 2.467.192 2.15.427 2.229c.273.091.418 1.909.402 5.055-.013 2.702.117 4.826.288 4.72s.312.141.312.549-.132.66-.293.56-.3 2.389-.31 5.529c-.01 3.467-.176 5.761-.42 5.843-.222.074-.404 1.2-.404 2.501 0 1.311-.178 2.367-.4 2.367s-.4.709-.4 1.576-.14 1.664-.313 1.77-.358.789-.413 1.517-.275 1.498-.487 1.71-.387.88-.387 1.483-.18 1.208-.4 1.344-.4.777-.4 1.424-.18 1.176-.4 1.176-.4.36-.4.8-.2.8-.443.8-.344.257-.224.571-.04.786-.357 1.049-.576.78-.576 1.149c0 .855-.905 2.824-1.3 2.828-.165.002-.3.363-.3.803s-.18.8-.4.8-.4.36-.4.8-.152.8-.337.8-.77.855-1.3 1.9-1.098 1.96-1.263 2.033-.3.406-.3.74-.54 1.11-1.2 1.727-1.2 1.435-1.2 1.818-.36 1.077-.8 1.54c-3.492 3.671-4.8 5.145-4.8 5.412 0 .171-.54.876-1.2 1.567s-1.2 1.443-1.2 1.672-.302.532-.672.674-1.382.946-2.248 1.787-1.75 1.53-1.96 1.53-1.12.765-2.018 1.7-1.876 1.647-2.17 1.582-.533.166-.533.513-.315.75-.7.897-1.05.592-1.475.988-.993.72-1.258.72-.59.281-.72.625-.398.529-.6.41c-.514-.318-1.748 1.199-1.59 1.956.074.358.27.642.433.632s1.325 1.104 2.58 2.479 2.876 2.909 3.602 3.412 1.32 1.099 1.32 1.324.18.298.4.162.4-.058.4.174c0 .579 18.678 19.215 18.967 18.925.128-.128.233.13.233.572s.36 1.131.8 1.529.8 1.056.8 1.462.18.738.4.738.4.54.4 1.2.18 1.2.4 1.2.4.54.4 1.2.18 1.2.4 1.2c.243 0 .4 1.792.4 4.576 0 2.62-.17 4.682-.4 4.824-.22.136-.4.867-.4 1.624s-.18 1.376-.4 1.376-.4.27-.4.6-.2.6-.443.6-.353.234-.243.521-.23.935-.757 1.442-.957 1.146-.957 1.421-.495.931-1.1 1.458-1.292 1.306-1.527 1.731a3.61 3.61 0 0 1-1.194 1.2c-.422.235-1.06.742-1.42 1.127s-.907.7-1.218.7-.824.36-1.14.8-.976.8-1.465.8-1 .18-1.135.4-.762.4-1.4.4-1.208.194-1.287.432c-.19.565-8.34.587-8.688.024-.14-.224-.87-.39-1.623-.369s-1.44-.169-1.524-.424-.5-.463-.92-.463-.767-.18-.767-.4-.36-.4-.8-.4-.8-.18-.8-.4-.35-.4-.777-.4-1.013-.327-1.3-.726-.838-.844-1.223-.988-.7-.537-.7-.873c0-.561-.484-.797-1.33-.65-.18.031-.218-.123-.083-.342s-.148-.719-.632-1.11c-.912-.738-4.456-4.008-7.163-6.611-.858-.825-1.753-1.5-1.99-1.5s-.54-.291-.676-.646c-.328-.855-12.418-12.954-12.944-12.954-.225 0-.527-.309-.672-.687-.446-1.163-3.695-4.17-4.18-3.87-.267.165-.344.103-.187-.15.296-.479-3.918-4.893-4.67-4.893-.262 0-.705-.495-.984-1.1s-1.223-1.593-2.098-2.196-1.6-1.368-1.6-1.7-.19-.604-.426-.604c-.46 0-1.66-1.032-4.995-4.3l-2.144-2.1H169.2v17.6c0 11.467-.14 17.6-.4 17.6-.22 0-.4.72-.4 1.6s-.18 1.6-.4 1.6-.4.461-.4 1.024c0 .58-.173.916-.4.776-.22-.136-.4-.044-.4.204 0 1.032-3.9 5.996-4.722 5.996-.198 0-.924.54-1.615 1.2s-1.527 1.2-1.86 1.2-.604.18-.604.4-.36.4-.8.4-.8.18-.8.4-.36.4-.8.4-.8.18-.8.4-.54.4-1.2.4-1.2.18-1.2.4c0 .513-8.267.539-8.583.027-.127-.205-.776-.358-1.443-.339s-1.42-.173-1.673-.427-.84-.461-1.306-.461-1.23-.36-1.703-.8-1.102-.8-1.4-.8-1.06-.54-1.692-1.2-1.304-1.2-1.493-1.2c-.54 0-2.307-1.906-2.307-2.487 0-.288-.457-.867-1.017-1.287s-.92-1.011-.804-1.315.034-.443-.184-.308-.395-.116-.395-.556-.18-.911-.4-1.047-.4-.597-.4-1.024-.18-.776-.4-.776-.4-.619-.4-1.376-.18-1.488-.4-1.624c-.265-.164-.4-30.671-.4-90.224l.4-89.976c.22 0 .4-.54.4-1.2s.18-1.2.4-1.2.4-.54.4-1.2.18-1.2.4-1.2.4-.287.4-.638c0-.77 1.34-2.756 2.876-4.265.618-.607 1.124-1.262 1.124-1.454s.495-.672 1.1-1.065 1.335-1.043 1.623-1.446.872-.732 1.3-.732.777-.18.777-.4.283-.4.63-.4.89-.263 1.212-.584 1.254-.691 2.072-.822 1.757-.397 2.087-.592c.863-.511 72.116-.513 71.8-.002m102.9 1.033c-.38.382-1.145-.236-.86-.695.168-.274.392-.267.68.02.236.236.318.54.182.675M48.235 138.698c-.437.437-.736-.258-.423-.981.298-.685.32-.684.485.014.096.403.068.838-.062.967m121.45 4.576c-.63.63-.714 72.938-.086 73.326.22.136.4.427.4.647s-.208.272-.462.115c-.28-.174-.353-.11-.185.163.37.599 41.273.68 41.643.081.138-.223 1.04-.406 2.004-.406s1.864-.18 2-.4.946-.4 1.8-.4 1.664-.18 1.8-.4.694-.4 1.24-.4 1.38-.36 1.852-.8 1.192-.8 1.6-.8 1.128-.36 1.6-.8 1.235-.8 1.695-.8 1.096-.36 1.413-.8.852-.804 1.188-.809 1.23-.725 1.988-1.6 1.618-1.591 1.913-1.591.655-.311.8-.691.844-1.27 1.552-1.977 1.61-1.837 2.008-2.509.883-1.223 1.08-1.223.267-.234.157-.521.23-.935.757-1.442.957-1.172.957-1.479.18-.558.4-.558.4-.36.4-.8.18-.8.4-.8.4-.54.4-1.2.18-1.2.4-1.2.4-.619.4-1.376.18-1.488.4-1.624.4-.766.4-1.4.18-1.264.4-1.4c.24-.148.4-2.796.4-6.6s-.16-6.452-.4-6.6c-.22-.136-.4-.946-.4-1.8s-.18-1.664-.4-1.8-.4-.755-.4-1.375-.25-1.336-.56-1.591-.467-.815-.354-1.244c.125-.48-.035-.872-.416-1.018-.34-.131-.537-.455-.436-.719s-.18-.872-.625-1.35-.8-1.035-.8-1.237-.274-.596-.6-.874-.52-.595-.41-.704-.157-.696-.59-1.305-.788-1.238-.788-1.398-.315-.585-.7-.944-.895-1.01-1.133-1.447a3.26 3.26 0 0 0-1.3-1.189c-.477-.217-.867-.712-.867-1.1s-.262-.705-.583-.705-1.34-.72-2.265-1.6-1.845-1.6-2.045-1.6-1.148-.54-2.107-1.2-2.016-1.2-2.348-1.2-.716-.18-.852-.4-.697-.4-1.247-.4c-.565 0-.893-.174-.753-.4.136-.22-.113-.4-.553-.4s-.91-.18-1.047-.4-.967-.4-1.847-.4-1.51-.147-1.398-.326-.638-.37-1.664-.423-2.13-.312-2.454-.574c-.482-.389-.526-.367-.237.123s.247.514-.248.113c-.87-.703-41.165-.74-41.866-.039M366 191.4c0 .33-.18.6-.4.6s-.4-.27-.4-.6.18-.6.4-.6.4.27.4.6m1.6 12.424c0 .317-.18.576-.4.576s-.4-.371-.4-.824.18-.712.4-.576.4.507.4.824m-.8 6.256c0 .646-.118.762-.445.435-.245-.245-.324-.641-.177-.88.414-.67.622-.521.622.445m-16 58.32c0 .44-.18.8-.4.8s-.4-.36-.4-.8.18-.8.4-.8.4.36.4.8m-.8 5.824c0 .317-.17.576-.375.576s-.35-.348-.317-.772c.066-.872.692-.695.692.196m-299.2 4.6c0 .453-.18.712-.4.576s-.4-.507-.4-.824.18-.576.4-.576.4.371.4.824M81.4 306.4c.136.22-.023.4-.353.4s-.71-.18-.847-.4.023-.4.353-.4.71.18.847.4m221.4 8.976c0 .891-.626 1.068-.692.196-.032-.424.11-.772.317-.772s.375.259.375.576m-15.833 31.567c-.233.605-.967.94-.967.44 0-.285.968-1.332 1.11-1.2.06.056-.004.398-.142.76M193.2 370.4c0 .22-.37.4-.824.4s-.712-.18-.576-.4.507-.4.824-.4.576.18.576.4" fill="#e4243c"/><g fill="#e8243c"><use xlink:href="#B"/><use xlink:href="#B"/><use xlink:href="#B"/><use xlink:href="#B"/></g></g><defs ><path id="B" d="M207.2 24c.776.501 1.2.501 1.2 0 0-.22-.405-.397-.9-.394-.728.005-.785.08-.3.394m25.2 10.197c0 .111.36.563.8 1.003.486.486.8.603.8.296 0-.277-.36-.728-.8-1.003s-.8-.408-.8-.296M171.6 45.4c-.283.341-.424.709-.314.819s.43-.078.714-.419.424-.709.314-.819-.43.078-.714.419m-60 1.025c0 .455 1.075.502 1.35.058.107-.174-.152-.343-.577-.375s-.772.111-.772.317m119.078 5.152c.118.453.374.823.57.823.54 0 .42-.646-.216-1.174-.466-.387-.53-.324-.353.351m65.722 1.127c0 .167.36.528.8.803.93.581 1.054.29.23-.536-.63-.63-1.03-.734-1.03-.267M80.4 88c0 .22.27.4.6.4s.6-.18.6-.4-.27-.4-.6-.4-.6.18-.6.4m-22.57 9.029c-.424.309-.693.64-.6.734s.518-.082.94-.392.693-.64.6-.734-.518.082-.94.392m285.77 2.696c0 .069.585.654 1.3 1.3l1.3 1.175-1.175-1.3c-1.095-1.212-1.425-1.484-1.425-1.175M49.693 105.2c-.275.44-.395.8-.268.8.3 0 1.375-1.073 1.375-1.371 0-.509-.638-.18-1.107.571m307.135 13.024c.064.851.65 1.896.868 1.545.128-.208-.02-.725-.33-1.15s-.552-.603-.537-.395m-91.628 5.68c0 .167.364.531.81.809.75.468.772.446.304-.304-.504-.806-1.113-1.083-1.113-.505m96.267 19.963c-.398.398-.322 1.333.108 1.333.206 0 .348-.36.315-.8-.068-.904-.06-.895-.423-.533m-340.96 54.105c.032.425.2.684.375.577.444-.274.397-1.349-.058-1.349-.206 0-.35.348-.317.772m346.4 5.619c.034.445.203.809.376.809.442 0 .394-1.104-.06-1.385-.206-.128-.348.132-.315.576m-.73 6.044c-.147.239-.068.635.177.88.327.327.445.211.445-.435 0-.966-.208-1.115-.622-.445M250 251.515c0 .457.967 1.499 3.042 3.277.637.546.258.01-.842-1.191l-2.1-2.359c-.055-.097-.1.026-.1.273m5.167 5.422c.573.713 2.033 1.65 2.033 1.304 0-.102-.585-.597-1.3-1.098-.922-.647-1.135-.707-.733-.206m-53.967 7.836c0 .205.585.775 1.3 1.268l1.3.895-1.175-1.268c-1.267-1.367-1.425-1.467-1.425-.895m5.402 5.229c.4.442.81.72.9.619.216-.216-.924-1.421-1.345-1.421-.16 0 .036.361.435.802M358 283c0 .33.18.6.4.6s.4-.27.4-.6-.18-.6-.4-.6-.4.27-.4.6m-122.4 15.254c0 .32 1.953 2.146 2.295 2.146.14 0-.263-.54-.895-1.2-1.185-1.237-1.4-1.382-1.4-.946m44 .346c0 .33.18.6.4.6s.4-.27.4-.6-.18-.6-.4-.6-.4.27-.4.6m-229.907 1.8c.47.751 1.107 1.08 1.107.571 0-.298-1.075-1.371-1.375-1.371-.127 0-.007.36.268.8m114.4 5.6c-.275.44-.362.8-.193.8s.532-.36.807-.8.362-.8.193-.8-.532.36-.807.8m-33.293.218c0 .414 2.05 2.266 2.267 2.049.12-.12-.243-.679-.806-1.243-.996-.996-1.46-1.252-1.46-.806m-74.4.882c0 .169.36.532.8.807s.8.362.8.193-.36-.532-.8-.807-.8-.362-.8-.193m217.26.342c-.298.336-.46.69-.365.787s.503-.185.903-.627.563-.795.364-.787-.605.29-.902.627m64.17 2.387c-.424.309-.693.64-.6.734s.518-.082.94-.392.693-.64.6-.734-.518.082-.94.392M151 313.6c-.136.22.123.4.576.4s.824-.18.824-.4-.26-.4-.576-.4-.688.18-.824.4m-66.6 8.176c0 .317.18.688.4.824s.4-.123.4-.576-.18-.824-.4-.824-.4.259-.4.576m7.2 19.549c0 .069.573.654 1.274 1.3l1.275 1.175-.975-1.278c-.827-1.085-1.574-1.653-1.574-1.197m2.85 3.773c1 1.26 1.584 1.8 1.772 1.612.213-.213-1.65-2.31-2.053-2.31-.147 0-.02.314.28.698m97.364 25.278c-.128.206.132.348.576.315s.81-.203.81-.376c0-.442-1.104-.394-1.385.061"/></defs></svg>